<svg xmlns="http://www.w3.org/2000/svg" version="1.1" viewBox="-5.0 -10.0 110.0 135.0">
 <g>
  <path d="m30.441 26.609h22.121c0.82812 0 1.5-0.67188 1.5-1.5s-0.67188-1.5-1.5-1.5h-22.121c-0.82812 0-1.5 0.67188-1.5 1.5s0.67188 1.5 1.5 1.5z"/>
  <path d="m22.68 36.57h37.641c0.82031 0 1.5-0.67969 1.5-1.5 0-0.82031-0.67969-1.5-1.5-1.5h-37.641c-0.82031 0-1.5 0.67188-1.5 1.5 0 0.82813 0.67969 1.5 1.5 1.5z"/>
  <path d="m22.68 46.52h37.641c0.82031 0 1.5-0.67188 1.5-1.5s-0.67969-1.5-1.5-1.5h-37.641c-0.82031 0-1.5 0.67188-1.5 1.5s0.67969 1.5 1.5 1.5z"/>
  <path d="m22.68 56.48h35.5c0.82812 0 1.5-0.67188 1.5-1.5s-0.67188-1.5-1.5-1.5h-35.5c-0.82031 0-1.5 0.67188-1.5 1.5s0.67969 1.5 1.5 1.5z"/>
  <path d="m22.68 66.43h32.422c0.82813 0 1.5-0.67188 1.5-1.5 0-0.82813-0.67187-1.5-1.5-1.5h-32.422c-0.82031 0-1.5 0.67969-1.5 1.5 0 0.82031 0.67969 1.5 1.5 1.5z"/>
  <path d="m17.32 86.352h48.359c4.0312 0 7.3203-3.2891 7.3203-7.3203v-15.078l16.309-31.879c0.76172-1.5 0.89844-3.2109 0.37891-4.8086-0.51172-1.6016-1.6211-2.9102-3.1211-3.6797-3.1016-1.5781-6.8984-0.35156-8.4883 2.75l-5.0781 9.9297v-15.289c0-4.0312-3.2891-7.3203-7.3203-7.3203l-48.359-0.007812c-4.0391 0-7.3203 3.2891-7.3203 7.3203v58.059c0 4.0312 3.2812 7.3203 7.3203 7.3203zm63.43-58.66c0.58984-1.1406 1.75-1.8008 2.9492-1.8008 0.51172 0 1.0195 0.12109 1.5 0.37109 1.6211 0.82812 2.2695 2.8203 1.4414 4.4414l-2.1602 4.2188-5.8789-3.0117zm-3.5195 6.8867 5.8789 3.0117-14.961 29.238c-0.23047 0.44922-0.57031 0.85939-0.98047 1.1602l-5.3281 3.9102 0.070312-6.6094c0-0.51172 0.12891-1.0117 0.35938-1.4688l14.961-29.238zm-64.23-13.609c0-2.3789 1.9414-4.3203 4.3203-4.3203h48.359c2.3789 0 4.3203 1.9414 4.3203 4.3203v21.16l-10.398 20.32c-0.44922 0.87109-0.69141 1.8398-0.69141 2.8203l-0.078125 8.1211h-8.9414c-0.82812 0-1.5 0.67188-1.5 1.5s0.67188 1.5 1.5 1.5h10.43c0.14063 0 0.28125-0.03125 0.41016-0.070313 0.03125 0 0.058593-0.011718 0.078125-0.019531 0.14062-0.050781 0.26172-0.10938 0.37891-0.19141 0-0.011719 0.011719-0.011719 0.019531-0.011719l7.7383-5.6992c0.37891-0.28125 0.73047-0.60938 1.0508-0.98047v9.6094c0 2.3789-1.9414 4.3203-4.3203 4.3203l-48.355 0.003906c-2.3789 0-4.3203-1.9414-4.3203-4.3203z"/>
 </g>
</svg>
