<svg xmlns="http://www.w3.org/2000/svg" data-name="Layer 1" viewBox="0 0 128 160" x="0px" y="0px"><title>141 Web Icon Set 86 expanded</title><path d="M64,128c24.84668,0,50-4.80859,50-14,0-6.80115-13.776-11.19958-31.00507-13.02887l.00165,4.01416C99.90485,106.84027,110,110.93994,110,114c0,4.07715-17.91992,10-46,10s-46-5.92285-46-10c0-3.06067,10.09949-7.16125,27.014-9.01575l.00677-4.01483C27.78436,102.79767,14,107.19678,14,114,14,123.19141,39.15332,128,64,128Z"/><path d="M63.55078,32a14,14,0,1,0-14-14A14.01573,14.01573,0,0,0,63.55078,32Zm0-24a10,10,0,1,1-10,10A10.01146,10.01146,0,0,1,63.55078,8Z"/><path d="M43.52051,79.47266H49V82a1.99676,1.99676,0,0,0,.052.43976L49,113.2627C49.03516,116.5332,51.29395,119,54.25293,119H73.959c3.01563,0,5.041-2.30566,5.041-5.7373l-.01746-42.51758H91.12891a7.86536,7.86536,0,0,0,7.67578-6.26025,8.11262,8.11262,0,0,0-1.9922-7.3374l-14.63573-19.728a2.07783,2.07783,0,0,0-.167-.19678,10.717,10.717,0,0,0-7.66895-3.28223H52.40137C44.26074,33.94043,39,39.81641,39,48.90967V74.92383A4.4355,4.4355,0,0,0,43.52051,79.47266ZM79.0459,39.9126,93.67383,59.62988a1.89928,1.89928,0,0,0,.17285.20313,4.18072,4.18072,0,0,1,1.05371,3.78564,3.89325,3.89325,0,0,1-3.77148,3.12646H72.79a.23142.23142,0,0,1-.19238-.25391V61.98193a.23538.23538,0,0,1,.19238-.25488H84.125a2.00055,2.00055,0,0,0,1.67188-3.09814L78.95605,48.21777a2.44959,2.44959,0,0,0-3.08069-.78027,1.99368,1.99368,0,0,0-.82758,2.17755l-.07434.00995.00366,8.10205H72.79a4.17507,4.17507,0,0,0-3.48,1.88617l-1.104-13.00092a1.98239,1.98239,0,0,0-.16229-.619l1.94061-2.49622a1.99958,1.99958,0,0,0,0-2.45508l-2.41119-3.10156h6.76764A6.60152,6.60152,0,0,1,79.0459,39.9126Zm-.06958,15.69531L80.418,57.72705h-1.4408ZM62.16895,42.26953l1.85156-2.38135,1.85156,2.38135-1.85156,2.38135Zm1.40472,7.58875a1.96828,1.96828,0,0,0,.89368,0L66.335,71.85938l-2.31445,2.38086-2.31445-2.38086ZM43,48.90967c0-2.57324.67773-10.96924,9.40137-10.96924h8.06647L58.05664,41.042a1.99958,1.99958,0,0,0,0,2.45508l1.94061,2.49622a1.98239,1.98239,0,0,0-.16229.619L57.64258,72.42969a2.00085,2.00085,0,0,0,.55859,1.5625l4.38477,4.51172a2,2,0,0,0,2.86914,0l4.38477-4.51172a2.00085,2.00085,0,0,0,.55859-1.5625l-.2243-2.64117a4.11467,4.11467,0,0,0,2.61591.9566h2.1925L75,113.26367C75,115,74.27051,115,73.959,115H66.02051V83.90332a2,2,0,0,0-4,0V115H54.25293c-.97559,0-1.24609-1.165-1.25293-1.75586l.05371-31.79395A1.99479,1.99479,0,0,0,53,81.00238V54a2,2,0,0,0-4,0V75.47266H43.52051c-.18164,0-.52051,0-.52051-.54883Z"/><path d="M90.12109,15a2.0001,2.0001,0,0,0,2,2h6a2,2,0,1,0,0-4h-6A2.0001,2.0001,0,0,0,90.12109,15Z"/><path d="M91,8.55029a1.99407,1.99407,0,0,0,1.46289-.63623l4.24219-4.55029A2,2,0,1,0,93.7793.63623L89.53711,5.18652A1.99974,1.99974,0,0,0,91,8.55029Z"/><path d="M93.7793,29.36377a2,2,0,1,0,2.92578-2.72754l-4.24219-4.55029a2,2,0,1,0-2.92578,2.72754Z"/><path d="M28.87891,16h6a2,2,0,0,0,0-4h-6a2,2,0,0,0,0,4Z"/><path d="M34.59277,7.62158a2.00016,2.00016,0,0,0,2.81445-2.84277L33.165.57861a2.00016,2.00016,0,0,0-2.81445,2.84277Z"/><path d="M34.59277,20.37842l-4.24219,4.2002A2.00016,2.00016,0,0,0,33.165,27.42139l4.24219-4.2002a2.00016,2.00016,0,0,0-2.81445-2.84278Z"/></svg>
