<svg version="1.1" id="Layer_1" xmlns="http://www.w3.org/2000/svg" xmlns:xlink="http://www.w3.org/1999/xlink" x="0px" y="0px"
	 width="100%" viewBox="0 0 1024 1024" enable-background="new 0 0 1024 1024" xml:space="preserve">
<path fill="#000000" opacity="1.000000" stroke="none" 
	d="
M191.071823,773.906616 
	C157.744843,734.743774 132.813324,691.145386 116.400612,642.818726 
	C106.684151,614.208862 100.415672,584.809448 98.556969,554.529419 
	C97.791847,542.064880 96.743088,529.627075 96.699188,517.125427 
	C96.504463,461.673248 107.937630,408.758392 131.182297,358.403076 
	C166.569855,281.742462 221.247208,222.649628 293.754211,179.757645 
	C315.312683,167.004562 337.741028,156.078705 361.148468,147.172440 
	C362.735413,146.568619 364.255371,145.080582 367.013733,146.537415 
	C363.488495,148.551422 360.418304,150.362732 357.296448,152.080124 
	C327.580627,168.427261 302.624664,190.567535 280.249115,215.757401 
	C252.749481,246.715881 230.198700,281.023346 212.170563,318.273132 
	C192.815628,358.264435 180.254089,400.354340 173.235779,444.215027 
	C168.371277,474.615570 166.541443,505.169830 168.535248,535.810547 
	C170.977203,573.338440 180.626816,609.240784 195.856171,643.621948 
	C225.337280,710.177612 272.572540,760.582581 335.089508,797.289612 
	C373.400696,819.784119 414.505798,833.818604 458.441254,839.803589 
	C471.151367,841.535034 483.925079,842.506531 496.754150,842.676453 
	C498.372742,842.697937 499.993866,842.532166 502.448517,842.412537 
	C499.154633,834.840332 496.217712,827.853577 493.095856,820.950500 
	C473.948334,778.611755 454.762512,736.290527 436.332916,693.631104 
	C435.373260,691.409729 434.877075,689.283020 434.880280,686.908936 
	C434.972168,618.745972 434.600739,550.578552 435.280884,482.421692 
	C435.663239,444.101440 434.440979,405.795288 435.141052,367.489868 
	C435.832306,329.668243 435.695984,291.846466 435.453949,254.029480 
	C435.319580,233.037476 435.529999,212.030701 434.917725,191.051147 
	C433.876373,155.369934 457.915833,128.219208 492.031403,123.240417 
	C530.701111,117.596985 563.118225,139.569031 570.624634,172.922150 
	C571.652344,177.488617 571.976440,182.139465 571.942627,186.803757 
	C570.736694,353.287964 571.721130,519.774841 571.383850,686.260132 
	C571.375183,690.534851 570.554016,694.387512 568.781555,698.283142 
	C548.156433,743.613342 527.737061,789.036377 507.982117,834.754333 
	C507.021149,836.978149 505.506653,839.084839 505.680573,841.719727 
	C507.496735,843.255798 509.588135,842.687012 511.492950,842.654907 
	C532.337219,842.303101 552.920471,839.813843 573.341003,835.552185 
	C640.802795,821.473022 698.846619,790.024902 747.005920,740.816711 
	C784.236572,702.775146 810.746704,658.113098 826.263611,607.113953 
	C835.519714,576.691956 840.994263,545.542908 840.458984,513.709412 
	C839.527283,458.301727 824.957092,406.530273 796.585144,358.833893 
	C766.464111,308.197144 726.108398,267.470337 676.260315,236.199890 
	C653.473389,221.905319 629.209656,210.492416 603.886353,201.418243 
	C600.185425,200.092087 598.865784,198.307236 598.614990,194.307648 
	C597.065430,169.594330 587.408691,148.293533 570.686523,130.121475 
	C569.121460,128.420746 567.596924,126.682747 565.920837,124.814026 
	C567.714417,122.966423 569.514709,123.829430 571.178345,124.126427 
	C619.915100,132.826874 665.263428,150.685181 708.241577,174.921890 
	C773.524841,211.737137 824.643311,262.810699 861.700989,327.902435 
	C884.579590,368.088867 899.655090,411.159271 907.006348,456.760834 
	C912.408508,490.271820 912.605957,524.037109 909.430542,557.843994 
	C904.603516,609.232971 890.076782,657.659485 865.736694,703.168762 
	C843.909363,743.979980 815.925903,780.072327 781.478760,810.891907 
	C742.461426,845.800232 698.279419,872.399353 648.899292,890.137878 
	C608.850403,904.524414 567.632568,912.883789 525.114014,915.588440 
	C489.058594,917.881897 453.688324,914.194092 418.508301,906.713562 
	C383.795624,899.332458 350.484406,887.915833 318.696960,872.240112 
	C269.712616,848.083801 226.493835,816.314392 191.071823,773.906616 
M498.895294,672.424744 
	C484.806000,678.071106 472.052246,686.450500 458.092529,692.365662 
	C455.622711,693.412292 456.438171,695.247498 457.205475,696.981445 
	C466.433960,717.834961 475.688049,738.677246 484.862671,759.554443 
	C485.622742,761.284119 486.356262,762.114136 488.470642,762.064209 
	C497.958893,761.839966 507.454102,761.742798 516.943970,761.850464 
	C520.078369,761.886047 521.714783,760.794861 522.957703,757.906616 
	C528.156067,745.827026 533.619934,733.862061 538.922180,721.826782 
	C543.065063,712.423279 547.113098,702.978027 551.349976,693.213318 
	C537.524170,687.609192 525.080750,680.221313 512.133545,673.833740 
	C508.298187,671.941650 504.128784,670.287231 498.895294,672.424744 
M459.633423,164.137436 
	C452.607727,174.820480 453.049896,186.860413 453.267609,198.878693 
	C453.389313,205.599380 453.317719,205.658615 459.844269,205.599380 
	C471.649872,205.492264 483.476379,204.788361 495.254913,205.277679 
	C513.243530,206.025009 531.186584,204.406357 549.153015,204.952484 
	C552.279480,205.047531 553.713257,203.656113 553.642761,200.461365 
	C553.543701,195.969803 553.760376,191.470642 553.636475,186.980377 
	C553.243469,172.729340 547.954407,160.777237 536.588989,151.872864 
	C525.577759,143.246002 512.961365,140.161621 499.123322,141.154236 
	C482.458832,142.349579 469.173004,149.276825 459.633423,164.137436 
M474.407959,261.472198 
	C475.205536,395.078369 473.923889,528.692139 475.077606,662.514771 
	C483.397095,660.187805 483.668518,659.838440 483.584503,652.601624 
	C483.513031,646.446838 483.335571,640.290161 483.417480,634.137146 
	C484.140259,579.832886 483.386353,525.520447 484.588654,471.214996 
	C485.093475,448.413940 484.500946,425.583740 484.224396,402.764740 
	C483.529785,345.455627 483.755280,288.135345 483.614655,230.819550 
	C483.597015,223.636887 482.154602,222.676254 474.408417,225.245087 
	C474.408417,236.872040 474.408417,248.676361 474.407959,261.472198 
M531.744385,265.499786 
	C531.728210,253.339981 531.731628,241.180084 531.685669,229.020401 
	C531.669067,224.619064 529.494202,223.060654 525.404297,224.391830 
	C522.099792,225.467392 523.399658,228.279800 523.398621,230.336792 
	C523.326599,371.257843 523.323303,512.178894 523.324646,653.099976 
	C523.324707,659.730286 524.589050,661.112427 531.740601,662.289551 
	C531.740601,530.319763 531.740601,398.409790 531.744385,265.499786 
z"/>
</svg>